<mxfile host="65bd71144e">
    <diagram id="ci-security-gate" name="CI Security Gate">
        <mxGraphModel dx="978" dy="926" grid="1" gridSize="10" guides="1" tooltips="1" connect="1" arrows="1" fold="1" page="1" pageScale="1" pageWidth="1920" pageHeight="1080" math="0" shadow="0">
            <root>
                <mxCell id="0"/>
                <mxCell id="1" parent="0"/>
                <mxCell id="c1" value="코드 커밋" style="rounded=1;whiteSpace=wrap;html=1;fillColor=#e8f0fe;strokeColor=#1a73e8;fontSize=16;align=center;fontColor=#000000;" parent="1" vertex="1">
                    <mxGeometry x="20" y="20" width="150" height="70" as="geometry"/>
                </mxCell>
                <mxCell id="c2" value="CI: Build &amp;amp; Test" style="rounded=1;whiteSpace=wrap;html=1;fillColor=#e6f4ea;strokeColor=#34a853;fontSize=16;align=center;fontColor=#000000;" parent="1" vertex="1">
                    <mxGeometry x="200" y="20" width="150" height="70" as="geometry"/>
                </mxCell>
                <mxCell id="c3" value="자동화 보안 검사" style="rounded=1;whiteSpace=wrap;html=1;fillColor=#fff3cd;strokeColor=#f4c20d;fontSize=16;align=center;fontColor=#000000;" parent="1" vertex="1">
                    <mxGeometry x="380" y="20" width="150" height="70" as="geometry"/>
                </mxCell>
                <mxCell id="gate" value="보안 기준 충족?" style="rounded=1;whiteSpace=wrap;html=1;fillColor=#e0e0e0;strokeColor=#757575;fontSize=16;align=center;fontColor=#000000;" parent="1" vertex="1">
                    <mxGeometry x="570" y="20" width="180" height="70" as="geometry"/>
                </mxCell>
                <mxCell id="ok" value="Yes: CD 배포 진행" style="rounded=1;whiteSpace=wrap;html=1;fillColor=#e6f4ea;strokeColor=#34a853;fontSize=16;align=center;fontColor=#000000;" parent="1" vertex="1">
                    <mxGeometry x="780" y="20" width="150" height="70" as="geometry"/>
                </mxCell>
                <mxCell id="fail" value="No: 빌드 실패 알림" style="rounded=1;whiteSpace=wrap;html=1;fillColor=#fde7e9;strokeColor=#ea4335;fontSize=16;align=center;fontColor=#000000;" parent="1" vertex="1">
                    <mxGeometry x="570" y="120" width="180" height="70" as="geometry"/>
                </mxCell>
                <mxCell id="ce1" style="edgeStyle=orthogonalEdgeStyle;endArrow=block;endFill=1;strokeWidth=2;fontColor=#000000;" parent="1" source="c1" target="c2" edge="1">
                    <mxGeometry relative="1" as="geometry"/>
                </mxCell>
                <mxCell id="ce2" style="edgeStyle=orthogonalEdgeStyle;endArrow=block;endFill=1;strokeWidth=2;fontColor=#000000;" parent="1" source="c2" target="c3" edge="1">
                    <mxGeometry relative="1" as="geometry"/>
                </mxCell>
                <mxCell id="ce3" style="edgeStyle=orthogonalEdgeStyle;endArrow=block;endFill=1;strokeWidth=2;fontColor=#000000;" parent="1" source="c3" target="gate" edge="1">
                    <mxGeometry relative="1" as="geometry"/>
                </mxCell>
                <mxCell id="ce4" style="edgeStyle=orthogonalEdgeStyle;endArrow=block;endFill=1;strokeWidth=2;fontColor=#000000;" parent="1" source="gate" target="ok" edge="1">
                    <mxGeometry relative="1" as="geometry"/>
                </mxCell>
                <mxCell id="ce5" style="edgeStyle=orthogonalEdgeStyle;endArrow=block;endFill=1;strokeWidth=2;fontColor=#000000;" parent="1" source="gate" target="fail" edge="1">
                    <mxGeometry relative="1" as="geometry"/>
                </mxCell>
            </root>
        </mxGraphModel>
    </diagram>
</mxfile>